<svg width="260" height="260" viewBox="0 0 260 260" fill="none" xmlns="http://www.w3.org/2000/svg">
<g clip-path="url(#clip0_7_2)">
<rect width="260" height="260" fill="white"/>
<path d="M191.948 174.43C191.948 185.95 189.158 195.76 183.578 203.86C177.998 211.78 169.988 217.9 159.548 222.22C149.288 226.54 137.138 228.7 123.098 228.7C115.898 228.7 108.968 228.34 102.308 227.62C95.8282 226.9 89.8882 225.91 84.4882 224.65C79.0882 223.21 74.3182 221.5 70.1782 219.52V196.3C76.6582 199.18 84.6682 201.79 94.2082 204.13C103.928 206.47 113.918 207.64 124.178 207.64C133.718 207.64 141.728 206.38 148.208 203.86C154.688 201.34 159.548 197.74 162.788 193.06C166.028 188.38 167.648 182.89 167.648 176.59C167.648 170.29 166.298 164.98 163.598 160.66C160.898 156.34 156.218 152.38 149.558 148.78C143.078 145 133.988 141.04 122.288 136.9C114.008 133.84 106.718 130.6 100.418 127.18C94.2982 123.58 89.1682 119.53 85.0282 115.03C80.8882 110.53 77.7382 105.4 75.5782 99.64C73.5982 93.88 72.6082 87.22 72.6082 79.66C72.6082 69.4 75.2182 60.67 80.4382 53.47C85.6582 46.09 92.8582 40.42 102.038 36.46C111.398 32.5 122.108 30.52 134.168 30.52C144.788 30.52 154.508 31.51 163.328 33.49C172.148 35.47 180.158 38.08 187.358 41.32L179.798 62.11C173.138 59.23 165.848 56.8 157.928 54.82C150.188 52.84 142.088 51.85 133.628 51.85C125.528 51.85 118.778 53.02 113.378 55.36C107.978 57.7 103.928 61.03 101.228 65.35C98.5282 69.49 97.1782 74.35 97.1782 79.93C97.1782 86.41 98.5282 91.81 101.228 96.13C103.928 100.45 108.338 104.32 114.458 107.74C120.578 111.16 128.858 114.85 139.298 118.81C150.638 122.95 160.178 127.45 167.918 132.31C175.838 136.99 181.778 142.66 185.738 149.32C189.878 155.98 191.948 164.35 191.948 174.43Z" fill="black"/>
</g>
<defs>
<clipPath id="clip0_7_2">
<rect width="260" height="260" fill="white"/>
</clipPath>
</defs>
</svg>
