<svg width="200" height="200" viewBox="0 0 200 200" fill="none" xmlns="http://www.w3.org/2000/svg">
<path d="M100.165 0.530518C122.591 0.533553 144.358 8.11223 161.936 22.0375C179.514 35.9627 191.873 55.4179 197.008 77.2478C202.143 99.0777 199.753 122.002 190.225 142.303C180.697 162.604 164.591 179.092 144.518 189.091C124.446 199.091 101.583 202.016 79.6393 197.393C57.6953 192.77 37.9566 180.869 23.6242 163.621C9.29182 146.373 1.20634 124.789 0.679046 102.37C0.151747 79.9505 7.21355 58.0103 20.7192 40.1076C29.9957 27.8127 41.9994 17.8388 55.7853 10.9712C69.5712 4.10351 84.7631 0.529501 100.165 0.530518Z" fill="white" stroke="#DCDDDD"/>
<path d="M44.5052 91.4728H156.197V98.4303H44.5052V91.4728Z" fill="#FFFA64"/>
<path d="M45.3748 144.524H154.218V151.481H45.3748V144.524Z" fill="#FFFA64"/>
<path d="M69.5034 127.213V125.098H58.928C58.9558 124.569 58.9558 124.041 58.9558 123.54V118.614H70.1991V116.499H45.9036V118.614H56.7851V123.512C56.7943 124.041 56.7758 124.571 56.7294 125.098H46.7663V127.213H56.5068C55.7554 131.249 53.282 135.34 45.3748 138.039C45.8991 138.551 46.3237 139.156 46.6272 139.824C54.0578 137.263 57.0634 133.423 58.2323 129.415C60.3473 134.7 63.8261 138.206 69.5034 139.824C69.8773 139.115 70.3557 138.466 70.9227 137.9C64.9358 136.425 61.377 132.692 59.5681 127.213H69.5034ZM98.0012 118.642C97.1258 117.237 96.0671 115.954 94.853 114.829L93.3745 115.664C94.5393 116.863 95.5662 118.188 96.4358 119.616L98.0012 118.642ZM75.4033 139.792C76.9398 138.225 78.0675 136.304 78.6873 134.199L76.7635 133.725C76.1284 135.72 75.0112 137.526 73.5109 138.985L75.4033 139.792ZM76.3495 122.983C76.8783 122.374 77.3514 121.703 77.828 121.035C79.3126 121.809 80.7371 122.692 82.0895 123.679C81.6878 124.476 81.2224 125.239 80.698 125.961C79.3356 124.847 77.8809 123.851 76.3495 122.983ZM84.0306 118.558C83.7278 119.797 83.3181 121.008 82.8061 122.176C81.4741 121.27 80.079 120.461 78.6316 119.755C78.8821 119.365 79.1047 118.972 79.3274 118.558H84.0306ZM85.116 116.749L84.7264 116.836H80.2179C80.5519 116.113 80.858 115.389 81.1085 114.693L79.1325 114.164C77.8872 117.954 75.6593 121.345 72.676 123.992C73.0656 124.326 73.7335 124.91 74.0953 125.296C74.5145 124.938 74.9139 124.557 75.292 124.155C76.8055 125.093 78.2389 126.154 79.5778 127.328C77.9301 129.19 75.9109 130.687 73.65 131.722C74.2099 132.174 74.6978 132.709 75.0972 133.308C80.3571 130.692 84.6707 125.599 86.3962 117.306L85.116 116.749ZM81.6372 134.421C81.9613 136.102 82.1566 137.804 82.2217 139.514L84.1976 139.236C84.1006 137.552 83.8774 135.877 83.5297 134.226L81.6372 134.421ZM87.2589 134.449C87.9621 136.098 88.5299 137.801 88.9565 139.542L90.9568 139.124C90.533 137.389 89.9375 135.701 89.1791 134.084L87.2589 134.449ZM92.9397 134.258C94.3402 135.979 95.5531 137.845 96.5576 139.824L98.617 139.072C97.5349 137.134 96.2661 135.306 94.8286 133.614L92.9397 134.258ZM98.1126 122.204V120.256H92.3796V114.69H90.4315V120.256H85.923V122.204H90.3202C89.9584 125.376 88.5112 128.827 83.5575 131.416C84.0876 131.849 84.5724 132.335 85.0047 132.866C88.9843 130.751 90.8489 128.052 91.7117 125.3C92.8805 128.779 94.7173 131.45 97.5003 133.064C97.8848 132.418 98.3527 131.825 98.8918 131.301C95.6357 129.718 93.7433 126.406 92.7136 122.204H98.1126ZM107.964 133.976C105.915 135.646 103.614 136.98 101.146 137.928C101.725 138.331 102.257 138.798 102.732 139.319C105.312 138.12 107.71 136.565 109.857 134.7L107.964 133.976ZM126.141 133.193C124.1 131.316 121.827 129.709 119.378 128.41L117.955 129.495C118.902 130.052 119.931 130.692 120.905 131.388C117.649 131.443 114.337 131.499 111.276 131.555C113.891 129.944 116.401 128.169 118.79 126.239L116.953 125.213C115.104 126.868 113.142 128.391 111.081 129.774C110.413 129.3 109.603 128.8 108.771 128.295C110.28 127.194 111.73 126.016 113.116 124.764H125.918V123.126H114.699V121.345H123.048V119.758H114.699V117.977H124.662V116.391H114.699V114.331H112.668V116.391H103.094V117.977H112.668V119.758H104.625V121.345H112.668V123.126H101.619V124.768H110.386C109.426 125.733 108.403 126.634 107.324 127.464C106.684 127.158 106.072 126.855 105.515 126.573L104.179 127.742C105.993 128.644 107.733 129.686 109.384 130.859C108.994 131.137 108.577 131.36 108.187 131.61C105.738 131.638 103.512 131.666 101.703 131.666L101.87 133.419C104.792 133.364 108.577 133.308 112.668 133.197V139.737H114.668V133.141C117.395 133.085 120.206 133.002 122.961 132.918C123.544 133.379 124.093 133.881 124.603 134.421L126.141 133.193ZM117.427 135.061C119.833 136.167 122.102 137.55 124.189 139.18L125.803 137.956C123.689 136.36 121.39 135.024 118.957 133.976L117.427 135.061ZM140.609 128.191C139.913 127.384 137.13 124.128 136.1 123.014V122.291H139.885V120.315H136.1V114.359H134.041V120.315H129.421V122.291H133.735C132.705 126.131 130.59 130.445 128.475 132.755C128.934 133.355 129.318 134.009 129.616 134.703C131.54 132.191 133.036 129.378 134.041 126.378V139.737H136.1V125.516C137.241 127.018 138.689 128.967 139.301 129.968L140.609 128.191ZM154.218 120.343H151.348V114.411H149.236V120.343H140.946V122.319H148.513C146.453 126.684 142.807 131.332 139.329 133.698C139.887 134.193 140.383 134.754 140.807 135.367C144.267 132.543 147.134 129.062 149.243 125.126V136.982C149.243 137.482 149.048 137.622 148.547 137.649C148.019 137.649 146.237 137.677 144.429 137.622C144.762 138.294 145.012 139.004 145.173 139.737C147.511 139.737 149.153 139.681 150.071 139.319C150.989 139.013 151.351 138.373 151.351 136.954V122.315H154.221L154.218 120.343Z" fill="#454545"/>
<path d="M45.3748 87.2078H68.5954V80.9982H61.3422V48.5416H55.6545C52.9124 50.2258 49.8606 51.3437 46.6793 51.829V56.5775H53.6716V80.9982H45.3748V87.2078ZM87.2241 87.9383C95.1035 87.9383 100.269 81.0504 100.269 67.7442C100.269 54.438 95.1035 47.8632 87.2241 47.8632C79.3447 47.8632 74.1266 54.3859 74.1266 67.7442C74.1266 81.0504 79.3447 87.9383 87.2241 87.9383ZM87.2241 81.9375C83.8845 81.9375 81.3798 78.5979 81.3798 67.7442C81.3798 56.9427 83.8845 53.8119 87.2241 53.8119C90.5637 53.8119 93.0162 56.9427 93.0162 67.7442C93.0162 78.5979 90.5637 81.9375 87.2241 81.9375ZM117.959 87.9383C125.838 87.9383 131.004 81.0504 131.004 67.7442C131.004 54.438 125.838 47.8632 117.959 47.8632C110.079 47.8632 104.861 54.3859 104.861 67.7442C104.861 81.0504 110.079 87.9383 117.959 87.9383ZM117.959 81.9375C114.619 81.9375 112.115 78.5979 112.115 67.7442C112.115 56.9427 114.619 53.8119 117.959 53.8119C121.298 53.8119 123.751 56.9427 123.751 67.7442C123.751 78.5979 121.298 81.9375 117.959 81.9375Z" fill="#454545"/>
<path d="M140.712 79.5197C142.924 79.5197 144.489 77.7038 144.489 74.5938C144.489 71.5047 142.924 69.7305 140.712 69.7305C138.499 69.7305 136.955 71.5047 136.955 74.5938C136.955 77.7038 138.499 79.5197 140.712 79.5197ZM140.712 77.7873C139.814 77.7873 139.125 76.8689 139.125 74.5938C139.125 72.3187 139.814 71.4629 140.712 71.4629C141.609 71.4629 142.319 72.3187 142.319 74.5938C142.319 76.8689 141.609 77.7873 140.712 77.7873ZM141.233 85.7606H143.049L151.44 69.7271H149.624L141.233 85.7606ZM151.941 85.7606C154.133 85.7606 155.719 83.9238 155.719 80.8347C155.719 77.7247 154.133 75.9505 151.941 75.9505C149.749 75.9505 148.184 77.7282 148.184 80.8347C148.184 83.9238 149.749 85.7606 151.941 85.7606ZM151.941 84.0073C151.043 84.0073 150.355 83.1098 150.355 80.8347C150.355 78.5596 151.043 77.6829 151.941 77.6829C152.838 77.6829 153.548 78.5596 153.548 80.8347C153.548 83.1098 152.838 84.0073 151.941 84.0073Z" fill="#454545"/>
</svg>
