<svg width="200" height="200" viewBox="0 0 200 200" fill="none" xmlns="http://www.w3.org/2000/svg">
<g clip-path="url(#clip0_5_61)">
<path d="M199.5 100C199.5 154.952 154.952 199.5 100 199.5C45.0477 199.5 0.5 154.952 0.5 100C0.5 45.0477 45.0477 0.5 100 0.5C154.952 0.5 199.5 45.0477 199.5 100Z" fill="white" stroke="#DCDDDD"/>
<path d="M54.1305 148.988H136.36V155.944H54.1305V148.988Z" fill="#FFFA64"/>
<path d="M73.6783 93.8261H78.6209L91.1287 44H86.2365L73.6783 93.8261ZM96.6766 84.647H119.121V78.647H112.11V47.2748H106.612C103.962 48.9027 101.012 49.9831 97.9374 50.4522V55.0417H104.696V78.647H96.6766V84.647Z" fill="#454545"/>
<path d="M125.088 74.9774C125.06 76.8384 125.409 78.6858 126.116 80.4077C126.823 82.1296 127.872 83.6901 129.199 84.9947L131.182 84.1182C128.778 81.6839 127.434 78.3983 127.443 74.9774C127.434 71.5564 128.778 68.2708 131.182 65.8365L129.199 64.96C127.872 66.2646 126.823 67.8251 126.116 69.547C125.409 71.2689 125.06 73.1163 125.088 74.9774ZM151.717 72.5356V70.073H143.891V65.2313H141.241V70.073H133.457V72.5356H140.152C138.421 75.9084 135.764 78.7174 132.493 80.633C133.19 81.2718 133.814 81.9857 134.354 82.7617C137.186 80.877 139.543 78.3628 141.241 75.4156V84.72H143.891V75.3113C145.613 78.2414 147.958 80.7566 150.761 82.6782C151.27 81.8662 151.896 81.1337 152.618 80.5043C149.367 78.599 146.697 75.8426 144.897 72.5321L151.717 72.5356ZM160.024 74.9774C160.052 73.1163 159.702 71.2689 158.995 69.547C158.289 67.8251 157.24 66.2646 155.912 64.96L153.93 65.8365C156.333 68.2708 157.677 71.5564 157.669 74.9774C157.677 78.3983 156.333 81.6839 153.93 84.1182L155.912 84.9947C157.24 83.6901 158.289 82.1296 158.995 80.4077C159.702 78.6858 160.052 76.8384 160.024 74.9774Z" fill="#454545"/>
<path d="M67.24 122.539H62.1757V119.729H60.1757V122.539H55.0487V124.264H67.24V122.539ZM64.04 128.713C64.6461 127.425 65.1848 126.106 65.6539 124.762L63.7618 124.316C63.4238 125.702 62.958 127.052 62.3705 128.351L64.04 128.713ZM59.5322 128.323C59.3126 126.959 58.9102 125.629 58.3357 124.372L56.7218 124.789C57.2558 126.072 57.6206 127.419 57.807 128.796L59.5322 128.323ZM66.5757 139.482C65.9357 138.897 63.2365 136.699 62.1792 135.916V135.256H67.3548V133.503H62.1792V130.581H67.5774V128.828H54.6592V130.581H60.1687V133.503H54.7426V135.256H59.7235C58.3356 137.724 56.4271 139.86 54.1305 141.516C54.6504 141.962 55.1172 142.466 55.5218 143.019C57.3447 141.496 58.9134 139.693 60.1687 137.676V144.967H62.1687V137.899C63.2804 138.882 64.3403 139.923 65.3444 141.016L66.5757 139.482ZM79.8487 128.936H70.5444V123.979C73.5986 123.447 76.5912 122.608 79.4766 121.475L77.807 119.944C75.3209 121.018 72.7262 121.82 70.0679 122.337L68.5652 121.864V131.548C68.5652 135.443 68.1757 140.257 64.6418 143.708C65.2261 144.087 65.7287 144.579 66.12 145.155C70.0226 141.294 70.5444 135.729 70.5444 131.583V130.887H74.6905V144.856H76.7218V130.887H79.8383L79.8487 128.936ZM97.24 135.53H92.3913V131.384H97.2331L97.24 135.53ZM102.583 131.384V130.327C103.797 131.306 105.135 132.12 106.562 132.748C106.957 132.113 107.434 131.533 107.981 131.023C106.073 130.252 104.311 129.162 102.77 127.798C104.301 126.696 105.76 125.498 107.139 124.212L105.581 123.099C104.35 124.398 103.02 125.598 101.602 126.689C100.955 126.013 100.35 125.297 99.7931 124.546C101.239 123.478 102.605 122.307 103.88 121.04L102.322 119.927C101.256 121.106 100.112 122.212 98.8992 123.238C98.207 122.126 97.6224 120.951 97.1531 119.729L95.3722 120.257C96.6904 123.77 98.8146 126.925 101.574 129.468H88.4957C91.0919 127.325 93.0864 124.544 94.2835 121.398L92.92 120.734L92.5583 120.821H84.6313V122.647H91.5322C90.8141 123.967 89.9457 125.199 88.9444 126.32C87.8739 125.349 86.7498 124.438 85.5774 123.593L84.2974 124.678C85.4822 125.567 86.5984 126.544 87.6365 127.6C85.9789 129.127 84.0657 130.352 81.9844 131.217C82.4571 131.697 82.8855 132.219 83.2644 132.776C84.73 132.109 86.121 131.29 87.4139 130.33V131.388H90.3357V135.534H83.9357V137.454H90.1096C89.6087 139.763 88.0226 141.962 83.3757 143.516C83.88 144.005 84.3184 144.557 84.68 145.158C90.1374 143.269 91.7792 140.431 92.2244 137.454H97.2331V141.906C97.2331 144.188 97.8418 144.8 100.183 144.8H103.828C105.859 144.8 106.444 143.826 106.638 140.292C105.97 140.12 105.338 139.828 104.774 139.429C104.663 142.407 104.524 142.963 103.661 142.963H100.489C99.5426 142.963 99.3757 142.796 99.3757 141.934V137.454H105.97V135.534H99.3757V131.388L102.583 131.384ZM121.664 127.047H113.372V128.883H132.405V127.047H123.779V124.292H134.882V122.372H123.779V119.645H121.664V122.372H110.784V124.292H121.664V127.047ZM134.13 136.424V131.109H111.508V136.424H113.508V133.002H132.044V136.424H134.13ZM118.075 134.421C117.685 139.235 116.572 141.934 110.197 143.297C110.704 143.794 111.102 144.391 111.365 145.05C118.27 143.353 119.717 140.069 120.19 134.421H118.075ZM128.231 142.629C127.146 142.629 126.951 142.49 126.951 141.739V134.393H124.892V141.767C124.892 143.909 125.532 144.522 128.037 144.522H132.099C134.273 144.522 134.826 143.576 135.077 139.847C134.41 139.67 133.773 139.398 133.184 139.04C133.101 142.156 132.934 142.629 131.904 142.629H128.231Z" fill="#454545"/>
<path d="M40 96.6486H160V103.649H40V96.6486Z" fill="#FFFA64"/>
<path d="M42.0622 69.2441C42.0622 67.0948 42.2182 64.9801 42.5302 62.9001C42.8422 60.8201 43.3795 58.8614 44.1422 57.0241C44.9395 55.1521 46.0315 53.5054 47.4182 52.0841C48.8395 50.6281 50.6249 49.5014 52.7742 48.7041C54.9582 47.8721 57.5929 47.4561 60.6782 47.4561C61.4062 47.4561 62.2555 47.4908 63.2262 47.5601C64.1969 47.5948 65.0115 47.6814 65.6702 47.8201V54.1121C65.0115 53.9388 64.2835 53.8174 63.4862 53.7481C62.7235 53.6441 61.9609 53.5921 61.1982 53.5921C58.8755 53.5921 56.9515 53.8694 55.4262 54.4241C53.9355 54.9788 52.7569 55.7761 51.8902 56.8161C51.0235 57.8561 50.3822 59.0868 49.9662 60.5081C49.5849 61.8948 49.3595 63.4548 49.2902 65.1881H49.6022C50.0875 64.3561 50.6769 63.6281 51.3702 63.0041C52.0982 62.3454 52.9822 61.8254 54.0222 61.4441C55.0622 61.0628 56.2755 60.8721 57.6622 60.8721C59.8462 60.8721 61.7182 61.3401 63.2782 62.2761C64.8729 63.1774 66.1035 64.5121 66.9702 66.2801C67.8369 68.0134 68.2702 70.1281 68.2702 72.6241C68.2702 75.2934 67.7502 77.5988 66.7102 79.5401C65.7049 81.4814 64.2489 82.9721 62.3422 84.0121C60.4702 85.0174 58.2342 85.5201 55.6342 85.5201C53.7275 85.5201 51.9422 85.1908 50.2782 84.5321C48.6489 83.8734 47.2102 82.8854 45.9622 81.5681C44.7489 80.2161 43.7955 78.5174 43.1022 76.4721C42.4089 74.4268 42.0622 72.0174 42.0622 69.2441ZM55.4782 79.2281C57.0035 79.2281 58.2515 78.7081 59.2222 77.6681C60.1929 76.5934 60.6782 74.9468 60.6782 72.7281C60.6782 70.9254 60.2622 69.5041 59.4302 68.4641C58.5982 67.4241 57.3329 66.9041 55.6342 66.9041C54.4902 66.9041 53.4849 67.1641 52.6182 67.6841C51.7515 68.1694 51.0755 68.8108 50.5902 69.6081C50.1049 70.4054 49.8622 71.2201 49.8622 72.0521C49.8622 72.9188 49.9835 73.7854 50.2262 74.6521C50.4689 75.4841 50.8155 76.2468 51.2662 76.9401C51.7515 77.6334 52.3409 78.188 53.0342 78.604C53.7275 79.02 54.5422 79.2281 55.4782 79.2281Z" fill="#454545"/>
</g>
<defs>
<clipPath id="clip0_5_61">
<rect width="200" height="200" fill="white"/>
</clipPath>
</defs>
</svg>
