<svg width="200" height="200" viewBox="0 0 200 200" fill="none" xmlns="http://www.w3.org/2000/svg">
<path d="M199.5 100C199.5 154.952 154.952 199.5 100 199.5C45.0477 199.5 0.5 154.952 0.5 100C0.5 45.0477 45.0477 0.5 100 0.5C154.952 0.5 199.5 45.0477 199.5 100Z" fill="white" stroke="#DCDDDD"/>
<path d="M57.107 71.7252H45.6983V67.2174H55.5487V65.2383H45.6983V60.7304C48.6335 60.4304 51.5379 59.8812 54.38 59.0887L52.8217 57.4469C48.6478 58.7513 40.5783 59.4783 34.0113 59.7843C34.2496 60.3769 34.4267 60.9923 34.54 61.6209C37.4096 61.4817 40.5504 61.2869 43.6113 60.953V65.2383H34.0391V67.2139H43.6113V71.7252H32.1783V73.7565H43.6148V79.8991C43.6148 80.4835 43.3643 80.6817 42.7522 80.6817C42.1122 80.7096 39.9417 80.7374 37.6043 80.6539C37.9745 81.3058 38.2719 81.9963 38.4913 82.713C41.413 82.7409 43.1939 82.6852 44.2235 82.3513C45.253 82.0174 45.7017 81.4052 45.7017 79.9304V73.7565H57.1104L57.107 71.7252ZM66.5122 57.5061C65.0296 61.6319 62.6881 65.396 59.6426 68.5496C60.119 69.1878 60.5205 69.8787 60.8391 70.6087C61.8423 69.5784 62.7633 68.4712 63.5939 67.2974V82.7687H65.653V64.0974C66.75 62.188 67.6989 60.1972 68.4913 58.1426L66.5122 57.5061ZM85.1835 64.0174V62.0383H73.6078C74.1643 60.8139 74.693 59.5617 75.1383 58.2817L73.1626 57.753C71.8935 61.6962 69.8076 65.3275 67.0409 68.4104C67.6146 68.8311 68.1542 69.2963 68.6548 69.8017C70.1899 68.0307 71.5158 66.0886 72.6061 64.0139H74.5261V82.7965H76.613V76.0626H84.933V74.1148H76.613V69.913H84.5435V67.993H76.613V64.0139L85.1835 64.0174ZM104.411 64.1043C104 65.098 103.526 66.0646 102.992 66.9983L103.27 67.0852H96.7313L97.6217 66.8904C97.2829 65.9055 96.8151 64.9698 96.2304 64.1078L104.411 64.1043ZM112.397 76.2087V74.4487H101.239V72.3896H109.949V70.8035H101.239V68.7687H111.309V67.0713H104.996C105.552 66.2365 106.164 65.1513 106.721 64.0939H112.286V62.3165H107.973C108.869 61.0314 109.687 59.6933 110.422 58.3096L108.307 57.753C107.709 59.215 107.002 60.63 106.192 61.9861L107.222 62.3165H103.855V57.3913H101.907V62.3165H98.5957V57.3913H96.6757V62.3165H93.253L94.6722 61.7878C94.0551 60.3333 93.2607 58.9606 92.307 57.7009L90.5539 58.2852C91.4272 59.5474 92.1641 60.8987 92.7522 62.3165H88.3278V64.0974H95.1174L94.1435 64.2922C94.7195 65.1551 95.178 66.0908 95.507 67.0748H89.4409V68.7687H99.2078V70.8H90.8322V72.3861H99.2078V74.4452H88.2165V76.1983H97.3157C94.3721 78.3124 91.0307 79.808 87.493 80.5948C88.0097 81.1223 88.4584 81.7124 88.8287 82.3513C92.637 81.28 96.1746 79.4128 99.2078 76.873V82.7965H101.239V76.7304C104.244 79.4083 107.823 81.3599 111.702 82.4348C112.067 81.7528 112.536 81.132 113.093 80.5948C109.504 79.8621 106.116 78.3636 103.159 76.2017L112.397 76.2087ZM115.737 73.0643L117.796 75.1513C118.213 74.56 118.853 73.7252 119.437 73.0017C120.857 71.2765 123.11 68.2191 124.418 66.5739C125.392 65.4052 125.921 65.2104 127.114 66.4869C128.394 67.9339 130.505 70.6052 132.317 72.6609C134.237 74.8348 136.77 77.6696 138.857 79.6452L140.641 77.6209C138.137 75.3948 135.382 72.5009 133.684 70.6365C131.903 68.7165 129.789 65.9617 128.091 64.2643C126.255 62.4 124.836 62.6783 123.194 64.5704C121.552 66.5461 119.215 69.7183 117.74 71.2209C117.116 71.879 116.446 72.4927 115.737 73.0574V73.0643ZM167.27 70.9426C167.27 65.2904 163.124 60.7026 156.613 60.7026C149.823 60.7026 144.453 65.9896 144.453 72.0278C144.453 76.6191 146.93 79.4574 149.41 79.4574C151.997 79.4574 154.192 76.5356 155.893 70.8035C156.649 68.1776 157.207 65.4988 157.563 62.7896C158.581 62.8306 159.581 63.072 160.505 63.5C161.43 63.9279 162.261 64.534 162.951 65.2835C163.641 66.0331 164.177 66.9113 164.527 67.8681C164.877 68.8248 165.035 69.8412 164.992 70.8591C164.992 75.673 161.486 78.3165 157.924 79.12C157.134 79.2864 156.335 79.4072 155.531 79.4817L156.836 81.5409C163.43 80.6817 167.27 76.7861 167.27 70.9426ZM146.623 71.833C146.623 68.0487 149.907 63.4852 155.25 62.8174C154.943 65.3623 154.422 67.8768 153.691 70.3339C152.272 75.0296 150.797 76.8974 149.49 76.8974C148.237 76.8974 146.623 75.3391 146.623 71.833ZM51.1522 109.843V112.125C53.3504 112.292 55.7156 112.431 58.4983 112.431C61.0861 112.431 64.1191 112.237 66.0113 112.097V109.812C64.0113 110.007 61.1696 110.202 58.4983 110.202C56.0446 110.227 53.5917 110.108 51.1522 109.843ZM52.2652 121.061L50.0113 120.838C49.6738 122.102 49.4778 123.399 49.427 124.706C49.427 128.212 52.7104 130.077 58.3591 130.077C61.5499 130.135 64.7359 129.806 67.8478 129.099L67.82 126.706C64.7168 127.527 61.5124 127.902 58.3035 127.819C53.8513 127.819 51.6809 126.341 51.6809 124.23C51.7067 123.148 51.904 122.077 52.2652 121.057V121.061ZM87.1348 123.117L85.0478 122.922C84.7927 123.998 84.6528 125.099 84.6304 126.205C84.6304 128.96 87.0235 130.323 91.42 130.323C93.2168 130.316 95.0106 130.177 96.787 129.906L96.8739 127.652C95.0889 128.022 93.2707 128.208 91.4478 128.209C87.4687 128.209 86.7452 126.929 86.7452 125.621C86.7666 124.773 86.8975 123.931 87.1348 123.117ZM83.9348 107.899L81.2635 107.677C81.3143 108.438 81.2852 109.203 81.1765 109.958C81.0896 110.515 80.9539 111.405 80.7591 112.379C79.6739 112.466 78.6722 112.518 77.7539 112.518C76.6378 112.527 75.5223 112.462 74.4148 112.323L74.5017 114.497C75.5035 114.553 76.5017 114.609 77.7296 114.609C78.5122 114.609 79.3713 114.581 80.2896 114.522C80.067 115.523 79.8165 116.581 79.5661 117.499C78.5365 121.423 76.5609 127.071 74.8913 129.934L77.34 130.769C79.1248 126.643 80.5764 122.382 81.6809 118.024C82.0148 116.8 82.2896 115.52 82.5713 114.296C84.5141 114.086 86.444 113.77 88.3522 113.35V111.176C86.5918 111.604 84.8079 111.929 83.0096 112.15C83.1487 111.398 83.3157 110.703 83.427 110.09C83.5417 109.537 83.7643 108.48 83.9313 107.899H83.9348ZM86.5504 116.358V118.445C88.2685 118.245 89.9965 118.143 91.7261 118.139C93.29 118.146 94.8518 118.258 96.4009 118.473L96.4565 116.358C94.8576 116.188 93.2506 116.104 91.6426 116.108C89.8583 116.104 88.0217 116.216 86.547 116.355L86.5504 116.358ZM93.4513 108.734L91.973 109.374C92.8141 110.608 93.5673 111.899 94.227 113.238L95.7296 112.57C95.0622 111.237 94.2997 109.954 93.4478 108.73L93.4513 108.734ZM96.5122 107.593L95.0652 108.233C95.9322 109.462 96.7043 110.755 97.3748 112.101L98.8739 111.43C98.167 110.101 97.377 108.819 96.5087 107.59L96.5122 107.593ZM108.425 109.346C108.425 109.652 108.37 110.682 108.286 111.99C106.839 112.212 105.197 112.407 104.279 112.463C103.611 112.49 103.083 112.518 102.47 112.49L102.693 114.8C104.446 114.55 106.867 114.216 108.147 114.049C108.06 114.939 108.008 115.857 107.952 116.744C106.561 118.943 103.361 123.283 101.803 125.231L103.194 127.151C104.53 125.259 106.366 122.616 107.73 120.557C107.73 121.002 107.702 121.391 107.702 121.67C107.646 124.703 107.646 126.122 107.615 128.793C107.615 129.341 107.586 129.889 107.528 130.435H109.949C109.893 129.934 109.837 129.238 109.81 128.737C109.67 126.261 109.698 124.563 109.698 122.031C109.698 121.03 109.726 119.917 109.785 118.748C112.317 116.383 115.263 114.769 118.495 114.769C119.175 114.731 119.857 114.83 120.498 115.06C121.14 115.291 121.728 115.648 122.229 116.11C122.73 116.572 123.133 117.131 123.414 117.752C123.695 118.373 123.849 119.044 123.865 119.725C123.893 124.508 119.663 126.71 114.961 127.377L115.99 129.464C122.057 128.296 126.147 125.377 126.119 119.781C126.122 118.834 125.933 117.897 125.564 117.025C125.195 116.153 124.654 115.365 123.974 114.707C123.293 114.049 122.486 113.536 121.602 113.197C120.718 112.859 119.775 112.702 118.829 112.737C115.55 112.836 112.409 114.077 109.949 116.247C109.977 115.638 110.036 115.023 110.088 114.438C110.505 113.743 110.978 112.991 111.34 112.49L110.505 111.517C110.45 111.544 110.418 111.544 110.366 111.572C110.561 109.624 110.783 108.066 110.923 107.37L108.307 107.283C108.397 107.966 108.435 108.654 108.418 109.343L108.425 109.346ZM137.531 107.426L135.083 107.339C135.027 108.09 134.971 108.897 134.86 109.732C134.389 112.708 134.101 115.709 133.997 118.72C134.003 120.2 134.105 121.678 134.303 123.144L136.439 122.977C136.269 121.844 136.251 120.693 136.383 119.555C136.717 115.91 139.949 110.845 143.427 110.845C146.349 110.845 147.851 114.017 147.851 118.41C147.851 125.395 143.121 127.871 137.083 128.758L138.387 130.758C145.288 129.506 150.126 126.111 150.126 118.376C150.126 112.532 147.483 108.831 143.778 108.831C140.244 108.831 137.35 112.31 136.213 115.148C136.454 112.543 136.892 109.961 137.524 107.423L137.531 107.426Z" fill="#454545"/>
<path d="M32.1739 87.1234H167.27V94.0799H32.1739V87.1234Z" fill="#FFFA64"/>
<path d="M48.6956 134.949H151.749V141.906H48.6956V134.949Z" fill="#FFFA64"/>
</svg>
