<svg width="200" height="200" viewBox="0 0 200 200" fill="none" xmlns="http://www.w3.org/2000/svg">
<path d="M199.5 100C199.5 154.952 154.952 199.5 100 199.5C45.0477 199.5 0.5 154.952 0.5 100C0.5 45.0477 45.0477 0.5 100 0.5C154.952 0.5 199.5 45.0477 199.5 100Z" fill="white" stroke="#DCDDDD"/>
<path d="M81.4957 34.1321L81.1617 34.219H74.3443V58.4208H76.2922V36.1043H80.3791C79.7113 37.9964 78.793 40.5564 77.9026 42.5599C80.0765 44.7025 80.6852 46.539 80.6852 48.0695C80.7324 48.4121 80.6994 48.7609 80.589 49.0887C80.4785 49.4164 80.2936 49.714 80.0487 49.9582C79.7443 50.1066 79.413 50.1918 79.0748 50.2086C78.4714 50.2427 77.8662 50.2241 77.2661 50.153C77.5789 50.7373 77.7594 51.3833 77.7948 52.0451C78.4808 52.0921 79.1694 52.0828 79.8539 52.0173C80.4065 51.9607 80.9392 51.7799 81.4122 51.4886C82.247 50.9321 82.5809 49.819 82.553 48.2886C82.553 46.5634 82.0522 44.5877 79.7983 42.306C80.8557 40.1321 81.9965 37.2973 82.8591 34.9599L81.4957 34.1321ZM86.3652 41.2277H94.7687V44.6782H86.3652V41.2277ZM94.7687 36.0799V39.4712H86.3652V36.0799H94.7687ZM96.3826 47.1756C95.2385 48.384 94.001 49.5004 92.6817 50.5147C92.0312 49.237 91.5182 47.8938 91.1513 46.5077H96.8278V34.2399H84.3617V55.4434C83.193 55.666 82.1356 55.8608 81.2452 56.0277L81.913 58.0277C84.6087 57.419 88.313 56.6086 91.7913 55.8017L91.6522 54.0208C89.8713 54.3825 88.0626 54.7443 86.3652 55.0782V46.5077H89.3704C90.7061 51.9338 93.2383 56.2469 97.3287 58.3338C97.6873 57.6983 98.1479 57.126 98.6922 56.6399C96.5408 55.6305 94.739 54.003 93.5165 51.9651C95.0981 50.8627 96.5955 49.6443 97.9965 48.3199L96.3826 47.1756ZM104.202 38.1634H123.151V42.226H125.266V36.219H114.744V33.0469H112.605V36.219H102.17V42.2295H104.202V38.1634ZM114.748 49.9895H122.984V48.0695H114.748V43.4504H121.843V41.5025H105.732V43.4504H112.633V55.1095C111.424 54.669 110.332 53.9552 109.444 53.0236C108.556 52.0921 107.895 50.968 107.513 49.739C107.802 48.5182 108.025 47.2828 108.181 46.0382L106.066 45.8434C105.457 50.8277 103.951 54.7756 100.863 57.1686C101.474 57.5735 102.043 58.0397 102.56 58.5599C104.435 56.867 105.86 54.7347 106.706 52.3547C109.238 57.0573 113.384 58.059 119.141 58.059H125.597C125.727 57.3212 125.992 56.6138 126.379 55.9721C125.043 55.9999 120.257 55.9999 119.256 55.9999C117.746 56.0228 116.238 55.911 114.748 55.666V49.9895ZM27.9304 85.3286C28.0174 85.6625 28.2087 86.7477 28.5148 88.2504C25.8991 88.6677 23.4783 89.033 22.393 89.1408C21.5026 89.2521 20.7791 89.3077 20.0835 89.3356L20.5565 91.8399C21.3913 91.6451 22.0348 91.506 22.8104 91.3669C23.8678 91.1721 26.2887 90.7825 28.9322 90.3651C29.2661 92.0904 29.6557 94.066 30.0452 95.9582C26.873 96.459 23.84 96.9321 22.4487 97.1269C21.7252 97.2382 20.64 97.3495 20 97.3773L20.5009 99.7982C21.0852 99.6312 21.8643 99.4921 22.9496 99.2973C24.313 99.0469 27.2904 98.546 30.4348 98.0173C30.9635 100.772 31.4087 103.026 31.52 103.638C31.7148 104.473 31.7983 105.308 31.9374 106.254L34.4696 105.781C34.2191 104.998 33.9965 104.056 33.8017 103.249C33.6626 102.609 33.2174 100.379 32.6609 97.6556C35.3878 97.2382 37.9757 96.8208 39.5061 96.5704C40.5357 96.4034 41.4261 96.2643 42.0104 96.2086L41.5652 93.8712C40.9565 94.0382 40.1739 94.2051 39.0887 94.3999C37.6974 94.6504 35.0539 95.1234 32.2435 95.5686C31.8817 93.7043 31.4922 91.7286 31.1304 90.0034C33.8017 89.586 36.3339 89.1686 37.6139 88.9738C38.3374 88.8625 39.2 88.7512 39.6139 88.6956L39.1409 86.3582C38.4921 86.5541 37.8324 86.712 37.1652 86.8312C35.9965 87.0538 33.4365 87.4712 30.7374 87.9164C30.4035 86.3582 30.2087 85.2208 30.153 84.9112C30.0661 84.3025 29.9304 83.5199 29.9026 82.9912L27.3983 83.4364C27.623 84.0529 27.8009 84.6854 27.9304 85.3286ZM55.5617 87.9721L53.1687 88.5564C53.463 89.0815 53.6875 89.6428 53.8365 90.226C54.0035 90.7547 54.3374 91.9512 54.7548 93.426C53.0574 93.7321 51.7496 93.9825 51.3635 94.0347C50.5287 94.1738 49.833 94.2851 49.0539 94.3408L49.6104 96.4556C50.3617 96.2886 52.6435 95.8469 55.2626 95.3147C56.3478 99.2938 57.6835 104.219 58.0452 105.471C58.2294 106.138 58.3689 106.817 58.4626 107.503L60.8278 106.894C60.6609 106.393 60.3826 105.53 60.2191 105.002C59.8574 103.777 58.4939 98.8799 57.3809 94.873C61.2487 94.0903 65.1722 93.3147 65.8157 93.2034C64.5091 95.3368 62.8979 97.2679 61.033 98.9356L63.0087 99.9095C65.3251 97.4709 67.3118 94.7392 68.9183 91.7843L67.527 90.8104C67.1858 90.9547 66.8318 91.0665 66.4696 91.1443C65.5235 91.3669 60.793 92.2851 56.8696 93.0364C56.4522 91.5582 56.1183 90.3651 55.9513 89.753C55.7843 89.0573 55.6452 88.4451 55.5617 87.9721ZM78.9913 84.6051L77.4052 86.306C79.8632 88.0605 82.1798 90.005 84.3339 92.1217L86.087 90.3686C83.8694 88.2725 81.4975 86.3459 78.9913 84.6051ZM76.5983 103.249L78.0765 105.53C81.9669 104.815 85.6811 103.35 89.0122 101.217C92.9006 98.7412 96.1124 95.337 98.3583 91.3112L97.0226 88.946C94.8971 93.1297 91.6874 96.6661 87.7287 99.186C84.3411 101.299 80.5504 102.682 76.5983 103.249ZM120.09 88.306C120.088 87.9017 120.205 87.5056 120.427 87.1678C120.649 86.83 120.967 86.5657 121.339 86.4083C121.712 86.2509 122.123 86.2074 122.52 86.2833C122.917 86.3593 123.283 86.5512 123.571 86.835C123.859 87.1187 124.056 87.4814 124.138 87.8774C124.22 88.2733 124.183 88.6847 124.031 89.0595C123.88 89.4343 123.62 89.7558 123.286 89.9832C122.952 90.2106 122.557 90.3339 122.153 90.3373C121.884 90.3415 121.616 90.292 121.366 90.1918C121.116 90.0915 120.888 89.9426 120.696 89.7535C120.504 89.5645 120.352 89.3392 120.248 89.0906C120.144 88.8421 120.09 88.5754 120.09 88.306ZM118.755 88.306C118.757 88.9738 118.957 89.626 119.329 90.1804C119.701 90.7348 120.229 91.1665 120.847 91.4211C121.464 91.6757 122.143 91.7417 122.798 91.6109C123.453 91.4802 124.054 91.1584 124.526 90.6862C124.998 90.214 125.32 89.6125 125.451 88.9577C125.582 88.3028 125.516 87.6239 125.261 87.0066C125.007 86.3892 124.575 85.8611 124.02 85.4888C123.466 85.1165 122.814 84.9168 122.146 84.9147C121.7 84.9138 121.259 85.0009 120.847 85.171C120.435 85.3411 120.061 85.5909 119.746 85.9059C119.431 86.221 119.181 86.5953 119.011 87.0071C118.841 87.419 118.754 87.8604 118.755 88.306ZM101.979 97.6834L104.066 99.7982C104.483 99.2138 105.096 98.3512 105.652 97.6556C106.932 96.0973 109.242 93.0643 110.577 91.4225C111.523 90.2817 112.056 90.1703 113.137 91.2277C114.306 92.3686 116.894 95.1234 118.508 96.9599C120.289 98.9912 122.737 101.829 124.713 104.223L126.633 102.191C124.49 99.9095 121.708 96.8764 119.843 94.9008C118.202 93.1477 115.837 90.6712 114.139 89.0573C112.247 87.2764 110.939 87.579 109.437 89.3356C107.683 91.3947 105.263 94.4834 103.958 95.819C103.197 96.5669 102.699 97.0712 101.979 97.6834ZM131.169 92.953V95.6799C132.031 95.593 133.506 95.5408 135.037 95.5408H150.31C151.562 95.5408 152.73 95.6521 153.287 95.6799V92.953C152.678 93.0086 151.673 93.0921 150.282 93.0921H135.033C133.475 93.0886 132 93.0086 131.165 92.953H131.169ZM161.082 84.6051L159.492 86.306C161.95 88.0605 164.267 90.005 166.421 92.1217L168.174 90.3686C165.956 88.2725 163.584 86.3459 161.078 84.6051H161.082ZM158.689 103.249L160.167 105.53C164.057 104.815 167.772 103.35 171.103 101.217C174.99 98.7408 178.2 95.3366 180.445 91.3112L179.11 88.946C176.984 93.1297 173.774 96.6661 169.816 99.186C166.428 101.299 162.637 102.682 158.685 103.249H158.689ZM84.2261 148.605V146.769H72.4243C72.667 145.915 72.8163 145.038 72.8696 144.153H81.1304V142.428H72.9217V139.951H81.52V138.48H83.607V133.134H72.9809V130.438H70.9217V133.134H60.32V138.48H62.32V135.002H81.52V138.202H72.9217V135.889H70.8661V138.198H62.6574V139.951H70.8661V142.428H63.1026V144.153H70.8104C70.7689 145.047 70.5906 145.929 70.2817 146.769H59.9026V148.605H69.3357C67.8887 150.692 65.0504 152.64 59.6243 154.143C60.1114 154.643 60.5322 155.204 60.8765 155.812C67.2243 153.92 70.2539 151.36 71.7009 148.605H71.9513C74.0661 152.584 77.8504 154.922 83.2765 155.868C83.6099 155.219 84.0312 154.62 84.5287 154.087C79.687 153.391 76.1252 151.583 74.1496 148.609L84.2261 148.605ZM92.1009 140.675C92.1565 139.423 92.1878 138.143 92.2122 136.863H98.8904V134.943H94.0452V130.463H92.0974V134.943H87.1965V136.863H90.2296C90.1183 143.708 89.7843 150.609 86.8904 154.449C87.4884 154.805 88.0164 155.267 88.4487 155.812C90.7861 152.668 91.6487 147.854 91.9826 142.567H95.3217C95.1548 150.306 94.9878 153.002 94.5148 153.642C94.426 153.785 94.2966 153.899 94.1429 153.968C93.9892 154.037 93.8184 154.059 93.6522 154.031C93.2626 154.031 92.233 154.031 91.0922 153.92C91.3861 154.492 91.5657 155.116 91.6209 155.756C92.6028 155.827 93.5885 155.827 94.5704 155.756C94.891 155.748 95.2048 155.662 95.4856 155.507C95.7664 155.352 96.006 155.133 96.1843 154.866C96.88 153.948 97.047 150.831 97.2417 141.621C97.2696 141.343 97.2696 140.675 97.2696 140.675H92.1009ZM112.362 136.195V134.306H102.421C102.826 133.166 103.17 132.005 103.45 130.828L101.45 130.41C100.668 133.833 99.2522 137.144 97.3635 139.231C97.9213 139.677 98.4488 140.159 98.9426 140.675C100.04 139.31 100.947 137.803 101.638 136.195H112.362ZM103.892 153.92C102.362 153.92 102.111 153.697 102.111 152.64V144.901L104.727 143.649V151.134H106.511V142.817L109.489 141.398C109.489 144.709 109.433 147.158 109.35 147.572C109.263 148.045 109.099 148.101 108.765 148.101C108.283 148.117 107.8 148.108 107.318 148.073C107.55 148.584 107.701 149.129 107.763 149.687C108.464 149.729 109.166 149.673 109.85 149.52C110.203 149.459 110.523 149.274 110.752 148.998C110.982 148.723 111.106 148.376 111.103 148.017C111.214 147.235 111.27 143.732 111.27 139.781L111.357 139.447L110.052 138.974L109.718 139.224L109.579 139.363L106.518 140.783V137.217H104.73V141.614L102.115 142.845V139.395H100.25V143.736L97.8052 144.876L98.5878 146.574L100.257 145.791V152.609C100.257 155.057 101.009 155.669 103.763 155.669H109.416C111.753 155.669 112.365 154.751 112.616 151.468C111.994 151.316 111.401 151.063 110.863 150.716C110.751 153.388 110.529 153.916 109.304 153.916L103.892 153.92ZM128.63 144.765V137.391H136.616V144.765H128.63ZM118.529 144.765V137.391H126.487V144.765H118.529ZM128.633 135.36V130.403H126.49V135.36H116.501V148.522H118.532V146.796H126.49V155.812H128.633V146.796H136.619V148.383H138.734V135.36H128.633Z" fill="#454545"/>
<path d="M74.2261 62.3929H126.714V69.3495H74.2261V62.3929Z" fill="#FFFA64"/>
<path d="M58.5739 159.784H139.57V166.741H58.5739V159.784Z" fill="#FFFA64"/>
<path d="M20 111.089H180.445V118.045H20V111.089Z" fill="#FFFA64"/>
</svg>
