<svg width="87" height="32" viewBox="0 0 87 32" fill="none" xmlns="http://www.w3.org/2000/svg">
<g clip-path="url(#clip0_4_2)">
<path d="M16.064 17.888C16.064 19.2533 15.7333 20.416 15.072 21.376C14.4107 22.3147 13.4613 23.04 12.224 23.552C11.008 24.064 9.568 24.32 7.904 24.32C7.05067 24.32 6.22933 24.2773 5.44 24.192C4.672 24.1067 3.968 23.9893 3.328 23.84C2.688 23.6693 2.12267 23.4667 1.632 23.232V20.48C2.4 20.8213 3.34933 21.1307 4.48 21.408C5.632 21.6853 6.816 21.824 8.032 21.824C9.16267 21.824 10.112 21.6747 10.88 21.376C11.648 21.0773 12.224 20.6507 12.608 20.096C12.992 19.5413 13.184 18.8907 13.184 18.144C13.184 17.3973 13.024 16.768 12.704 16.256C12.384 15.744 11.8293 15.2747 11.04 14.848C10.272 14.4 9.19467 13.9307 7.808 13.44C6.82667 13.0773 5.96267 12.6933 5.216 12.288C4.49067 11.8613 3.88267 11.3813 3.392 10.848C2.90133 10.3147 2.528 9.70667 2.272 9.024C2.03733 8.34133 1.92 7.552 1.92 6.656C1.92 5.44 2.22933 4.40533 2.848 3.552C3.46667 2.67733 4.32 2.00533 5.408 1.536C6.51733 1.06667 7.78667 0.831999 9.216 0.831999C10.4747 0.831999 11.6267 0.949332 12.672 1.184C13.7173 1.41867 14.6667 1.728 15.52 2.112L14.624 4.576C13.8347 4.23467 12.9707 3.94667 12.032 3.712C11.1147 3.47733 10.1547 3.36 9.152 3.36C8.192 3.36 7.392 3.49867 6.752 3.776C6.112 4.05333 5.632 4.448 5.312 4.96C4.992 5.45067 4.832 6.02667 4.832 6.688C4.832 7.456 4.992 8.096 5.312 8.608C5.632 9.12 6.15467 9.57867 6.88 9.984C7.60533 10.3893 8.58667 10.8267 9.824 11.296C11.168 11.7867 12.2987 12.32 13.216 12.896C14.1547 13.4507 14.8587 14.1227 15.328 14.912C15.8187 15.7013 16.064 16.6933 16.064 17.888ZM19.8665 22.272C19.8665 21.4827 20.0585 20.928 20.4425 20.608C20.8265 20.288 21.2852 20.128 21.8185 20.128C22.3732 20.128 22.8425 20.288 23.2265 20.608C23.6318 20.928 23.8345 21.4827 23.8345 22.272C23.8345 23.04 23.6318 23.5947 23.2265 23.936C22.8425 24.2773 22.3732 24.448 21.8185 24.448C21.2852 24.448 20.8265 24.2773 20.4425 23.936C20.0585 23.5947 19.8665 23.04 19.8665 22.272ZM29.229 24V1.152H32.109V21.44H42.093V24H29.229ZM48.4423 6.848V24H45.6263V6.848H48.4423ZM47.0663 0.415998C47.4929 0.415998 47.8663 0.565332 48.1863 0.863998C48.5276 1.14133 48.6983 1.58933 48.6983 2.208C48.6983 2.80533 48.5276 3.25333 48.1863 3.552C47.8663 3.85067 47.4929 4 47.0663 4C46.5969 4 46.2023 3.85067 45.8823 3.552C45.5623 3.25333 45.4023 2.80533 45.4023 2.208C45.4023 1.58933 45.5623 1.14133 45.8823 0.863998C46.2023 0.565332 46.5969 0.415998 47.0663 0.415998ZM62.0363 6.528C64.1483 6.528 65.8443 7.264 67.1243 8.736C68.4256 10.208 69.0763 12.4267 69.0763 15.392C69.0763 17.3333 68.7776 18.976 68.1803 20.32C67.6042 21.6427 66.7829 22.6453 65.7163 23.328C64.6709 23.9893 63.4336 24.32 62.0043 24.32C61.1296 24.32 60.3509 24.2027 59.6683 23.968C58.9856 23.7333 58.3989 23.4347 57.9083 23.072C57.4389 22.688 57.0336 22.272 56.6923 21.824H56.5003C56.5429 22.1867 56.5856 22.6453 56.6283 23.2C56.6709 23.7547 56.6923 24.2347 56.6923 24.64V31.68H53.8763V6.848H56.1803L56.5643 9.184H56.6923C57.0336 8.69333 57.4389 8.24533 57.9083 7.84C58.3989 7.43467 58.9749 7.11467 59.6363 6.88C60.3189 6.64533 61.1189 6.528 62.0363 6.528ZM61.5243 8.896C60.3723 8.896 59.4443 9.12 58.7403 9.568C58.0363 9.99467 57.5243 10.6453 57.2043 11.52C56.8843 12.3947 56.7136 13.504 56.6923 14.848V15.392C56.6923 16.8 56.8416 17.9947 57.1403 18.976C57.4389 19.9573 57.9403 20.704 58.6443 21.216C59.3696 21.728 60.3509 21.984 61.5883 21.984C62.6336 21.984 63.4869 21.696 64.1483 21.12C64.8309 20.544 65.3323 19.7653 65.6523 18.784C65.9936 17.7813 66.1643 16.64 66.1643 15.36C66.1643 13.3973 65.7803 11.8293 65.0123 10.656C64.2656 9.48267 63.1029 8.896 61.5243 8.896ZM84.7318 19.264C84.7318 20.3733 84.4544 21.3013 83.8998 22.048C83.3451 22.7947 82.5558 23.36 81.5318 23.744C80.5078 24.128 79.2918 24.32 77.8838 24.32C76.6891 24.32 75.6544 24.224 74.7798 24.032C73.9264 23.84 73.1691 23.5733 72.5078 23.232V20.672C73.1904 21.0133 74.0118 21.3333 74.9718 21.632C75.9531 21.9093 76.9451 22.048 77.9478 22.048C79.3771 22.048 80.4118 21.824 81.0518 21.376C81.6918 20.9067 82.0118 20.288 82.0118 19.52C82.0118 19.0933 81.8944 18.7093 81.6598 18.368C81.4251 18.0267 80.9984 17.6853 80.3798 17.344C79.7824 17.0027 78.9184 16.6187 77.7878 16.192C76.6784 15.7653 75.7291 15.3387 74.9398 14.912C74.1504 14.4853 73.5424 13.9733 73.1158 13.376C72.6891 12.7787 72.4758 12.0107 72.4758 11.072C72.4758 9.62133 73.0624 8.50133 74.2358 7.712C75.4304 6.92267 76.9878 6.528 78.9078 6.528C79.9531 6.528 80.9238 6.63467 81.8198 6.848C82.7371 7.04 83.5904 7.31733 84.3798 7.68L83.4198 9.92C82.9504 9.70667 82.4491 9.52533 81.9158 9.376C81.4038 9.20533 80.8811 9.07733 80.3478 8.992C79.8144 8.88533 79.2704 8.832 78.7158 8.832C77.5638 8.832 76.6784 9.024 76.0598 9.408C75.4624 9.77067 75.1638 10.272 75.1638 10.912C75.1638 11.3813 75.3024 11.7867 75.5798 12.128C75.8571 12.448 76.3158 12.768 76.9558 13.088C77.6171 13.3867 78.4918 13.7493 79.5798 14.176C80.6678 14.5813 81.5958 14.9973 82.3638 15.424C83.1318 15.8507 83.7184 16.3733 84.1238 16.992C84.5291 17.5893 84.7318 18.3467 84.7318 19.264Z" fill="black"/>
</g>
<defs>
<clipPath id="clip0_4_2">
<rect width="87" height="32" fill="white"/>
</clipPath>
</defs>
</svg>
