<svg xmlns="http://www.w3.org/2000/svg" width="68" height="68" viewBox="0 0 68 68"><g transform="translate(-1402 -5940)"><g transform="translate(101 -81)"><circle cx="34" cy="34" r="34" transform="translate(1301 6021)" fill="#fff"/><path d="M34,1A33.009,33.009,0,0,0,21.155,64.407,33.009,33.009,0,0,0,46.845,3.593,32.793,32.793,0,0,0,34,1m0-1A34,34,0,1,1,0,34,34,34,0,0,1,34,0Z" transform="translate(1301 6021)" fill="#121212"/><g transform="translate(-0.5 -5)"><path d="M.5,40h-1V0h1Z" transform="translate(1335.5 6040.5)" fill="#121212"/><path d="M.5,12h-1V0h1Z" transform="translate(1335.5 6040.5) rotate(-45)" fill="#121212"/></g></g></g></svg>