<svg width="200" height="200" viewBox="0 0 200 200" fill="none" xmlns="http://www.w3.org/2000/svg">
<path d="M199.5 100C199.5 154.952 154.952 199.5 100 199.5C45.0477 199.5 0.5 154.952 0.5 100C0.5 45.0477 45.0477 0.5 100 0.5C154.952 0.5 199.5 45.0477 199.5 100Z" fill="white" stroke="#DCDDDD"/>
<path d="M38.2609 92.7722H162.073V99.7287H38.2609V92.7722Z" fill="#FFFA64"/>
<path d="M73.0435 150.163H127.516V157.12H73.0435V150.163Z" fill="#FFFA64"/>
<path d="M86.0174 131.757H91.5826V134.595H86.0174V131.757ZM86.0174 127.444H91.5826V129.976H86.0174V127.444ZM79.0052 122.463H95.6139V125.635H79.0052V122.463ZM96.2574 136.543C94.9374 137.581 93.5423 138.521 92.0835 139.353C91.1879 138.485 90.4365 137.48 89.8574 136.376H99.2869V134.595H93.5026V131.757H98.1774V129.976H93.5026V127.444H97.6487V120.654H76.9182V128.751C76.9182 133.204 76.6956 139.325 73.913 143.694C74.558 143.969 75.1657 144.324 75.7217 144.751C78.5913 140.244 79.0052 133.482 79.0052 128.751V127.447H84.0695V129.979H79.9235V131.76H84.0695V134.598H79.0887V136.379H82.5913V141.969C81.3948 142.164 80.3095 142.33 79.3913 142.442L79.7252 144.362C82.6226 143.861 86.6574 143.193 90.4695 142.553L90.3826 140.744C88.3826 141.078 86.3756 141.384 84.5113 141.69V136.376H87.9339C89.7982 140.637 93.3322 143.527 98.3409 144.779C98.6535 144.141 99.0683 143.558 99.5687 143.054C97.3313 142.653 95.2115 141.758 93.3635 140.435C94.9177 139.614 96.4062 138.674 97.8156 137.624L96.2574 136.543ZM111.45 122.101V124.355H105.357V122.101H111.45ZM105.357 128.223V125.826H111.45V128.219L105.357 128.223ZM113.398 129.809V120.515H103.325V144.751H105.357V129.809H113.398ZM112.616 136.264V133.259H116.511V136.261L112.616 136.264ZM122.136 138.017V136.261H118.351V133.256H121.523V131.565H107.809V133.263H110.814V136.261H107.277V138.017H110.755C110.66 139.102 110.314 140.149 109.744 141.077C109.174 142.004 108.396 142.786 107.471 143.36C107.976 143.709 108.434 144.12 108.835 144.584C109.899 143.829 110.784 142.849 111.428 141.715C112.072 140.58 112.46 139.318 112.563 138.017H116.515V144.223H118.351V138.017H122.136ZM117.823 128.25V125.826H124.139V128.247L117.823 128.25ZM124.139 122.101V124.355H117.823V122.101H124.139ZM126.17 120.515H115.847V129.837H124.139V142.024C124.139 142.47 124 142.633 123.555 142.633C123.137 142.664 121.635 142.664 120.104 142.609C120.435 143.255 120.66 143.95 120.772 144.668C122.22 144.791 123.678 144.668 125.085 144.306C125.896 143.944 126.17 143.277 126.17 142.052V120.515Z" fill="#454545"/>
<path d="M85.473 88.021C93.8104 88.021 100.847 83.3497 100.847 75.308C100.847 69.5688 97.0625 65.9062 92.1512 64.5462V64.2506C96.7599 62.4175 99.4243 58.988 99.4243 54.2575C99.4243 46.8071 93.6851 42.6053 85.233 42.6053C80.0886 42.6053 75.8904 44.6749 72.1025 47.9862L76.5373 53.308C79.1391 50.8836 81.6817 49.4645 84.8156 49.4645C88.5408 49.4645 90.6695 51.4749 90.6695 54.9045C90.6695 58.8071 88.0678 61.5862 80.026 61.5862V67.7949C89.5547 67.8019 92.0956 70.5184 92.0956 74.7758C92.0956 78.7375 89.0799 80.9253 84.6451 80.9253C80.6834 80.9253 77.4904 78.974 74.8886 76.4314L70.8086 81.9306C73.8834 85.4193 78.5547 88.021 85.473 88.021Z" fill="#454545"/>
<path d="M124.591 66.3652C123.974 67.4874 123.267 68.5576 122.476 69.5652H114.824C115.819 68.5668 116.74 67.4973 117.579 66.3652H124.591ZM130.657 76.4939H123.59V71.4608H130.657V76.4939ZM114.936 71.4608H121.53V76.4973H114.936V71.4608ZM118.581 85.8713C115.52 85.8713 114.936 85.4539 114.936 83.7286V78.3582H130.657V79.6104H132.744V69.5652H124.897C125.887 68.2316 126.762 66.8167 127.513 65.3356L126.122 64.4452L125.732 64.5843H118.859C119.193 64.0556 119.527 63.5547 119.833 63.0539L117.555 62.6086C115.593 66.1242 112.84 69.1348 109.513 71.4017C110.097 71.7893 110.605 72.281 111.012 72.8521C111.652 72.3791 112.292 71.906 112.876 71.3739V83.7008C112.876 87.0121 114.24 87.7878 118.72 87.7878H129.516C133.603 87.7878 134.473 86.5913 134.943 82.5286C134.218 82.3807 133.523 82.1164 132.883 81.746C132.55 85.1199 132.132 85.8713 129.461 85.8713H118.581ZM138.449 67.673L138.699 70.0939C141.704 69.4539 148.8 68.7895 151.777 68.4521C150.198 69.4648 148.895 70.8547 147.986 72.4967C147.078 74.1387 146.592 75.9809 146.574 77.8573C146.574 84.0626 152.445 86.8139 157.593 87.0121L158.4 84.7026C153.864 84.5356 148.8 82.8104 148.8 77.3843C148.871 75.4487 149.514 73.5775 150.648 72.0074C151.782 70.4374 153.357 69.2388 155.172 68.5634C156.966 68.2014 158.797 68.0519 160.626 68.1182V65.8956C158.762 65.9826 156.146 66.146 153.113 66.3965C147.993 66.8139 142.734 67.3426 140.925 67.5373C140.396 67.5895 139.506 67.6452 138.449 67.673ZM156.623 71.5408L155.203 72.1495C156.078 73.3879 156.841 74.7008 157.485 76.073L158.904 75.4052C158.231 74.0667 157.468 72.7756 156.619 71.5408H156.623ZM159.656 70.3721L158.292 71.0121C159.184 72.2394 159.966 73.543 160.63 74.9078L162.076 74.2121C161.348 72.8834 160.539 71.6009 159.652 70.3721H159.656Z" fill="#454545"/>
<path d="M49.7809 63.4783C47.6417 67.0678 43.0191 71.4644 38.2609 74.08C38.7533 74.5726 39.1832 75.124 39.5409 75.7217C44.2156 72.9948 48.6956 68.8765 50.9217 65.5096C53.4261 69.0157 58.2956 73.1061 62.553 75.5826C62.9296 74.9163 63.3876 74.2994 63.9165 73.7461C59.1656 71.2819 55.0362 67.771 51.84 63.4783H49.7809ZM52.007 81.7322H60.4417V79.8957H52.007V75.5548H59.3809V73.6904H42.8522V75.5548H49.8956V79.8957H41.6035V81.7322H49.8956V86.2678H39.3461V88.16H62.8591V86.2678H52.007V81.7322Z" fill="#454545"/>
</svg>
