<svg width="200" height="200" viewBox="0 0 200 200" fill="none" xmlns="http://www.w3.org/2000/svg">
<g clip-path="url(#clip0_5_14)">
<g clip-path="url(#clip1_5_14)">
<path d="M199.5 100C199.5 154.952 154.952 199.5 100 199.5C45.0477 199.5 0.5 154.952 0.5 100C0.5 45.0477 45.0477 0.5 100 0.5C154.952 0.5 199.5 45.0477 199.5 100Z" fill="white" stroke="#DCDDDD"/>
<mask id="path-2-inside-1_5_14" fill="white">
<path d="M62.3722 117.214H64.3479V113.405C66.3169 115.608 68.7498 117.347 71.4713 118.497C71.8034 117.923 72.2262 117.406 72.7235 116.967C70.005 116.083 67.535 114.567 65.5165 112.543H72.2505V110.897H64.3479V108.619C66.5995 108.433 68.8386 108.117 71.0539 107.673L69.7183 106.282C64.9982 107.077 60.2284 107.542 55.4435 107.673C55.6634 108.133 55.8224 108.619 55.9165 109.12C57.9478 109.064 60.1774 108.953 62.3722 108.786V110.897H54.6087V112.539H61.0887C59.023 114.657 56.5009 116.275 53.7148 117.27C54.209 117.692 54.6422 118.182 55.0018 118.724C57.8158 117.52 60.3325 115.715 62.3757 113.437L62.3722 117.214ZM66.9635 120.358C67.1305 119.524 67.2696 118.661 67.4087 117.854H56.807V119.496H60.1183C59.5896 122.445 58.3652 124.616 54.6087 125.812C55.0585 126.26 55.4342 126.777 55.7218 127.343C60.007 125.864 61.4539 123.197 62.0383 119.496H65.3218C65.0992 120.609 64.8487 121.75 64.5983 122.612L66.3792 122.835C66.4728 122.534 66.5472 122.227 66.6018 121.917H69.3287C69.0783 124.004 68.8278 124.922 68.4939 125.256C68.2713 125.45 68.0209 125.45 67.5479 125.45C67.1305 125.45 65.8226 125.45 64.487 125.339C64.7491 125.833 64.9188 126.37 64.9879 126.925C66.1086 127.003 67.233 127.012 68.3548 126.953C68.6584 126.977 68.9637 126.937 69.2512 126.837C69.5386 126.736 69.802 126.577 70.0244 126.369C70.6644 125.784 70.9983 124.393 71.3044 121.165C71.3424 120.898 71.361 120.628 71.36 120.358H66.9635ZM53.5792 111.012C52.3277 109.279 50.8167 107.749 49.0992 106.477L47.5131 107.645C49.2118 108.954 50.6953 110.521 51.9096 112.289L53.5792 111.012ZM52.7444 116.689H47.2661V118.637H50.8V125.76C49.5792 126.896 48.2973 127.964 46.96 128.96L48.0452 130.936C49.4087 129.739 50.6887 128.57 51.9131 127.37C53.6383 129.544 56.1426 130.515 59.7879 130.654C62.9044 130.793 68.7757 130.741 71.8922 130.598C72.0176 129.893 72.2425 129.209 72.56 128.567C69.2209 128.79 62.8209 128.873 59.76 128.734C56.5044 128.623 54.0557 127.677 52.7478 125.617L52.7444 116.689ZM83.1583 109.37V114.63H77.9583V109.37H83.1583ZM77.9583 122.059V116.522H83.1618V122.059H77.9583ZM85.0818 123.979V107.506H76.007V126.539H77.9548V123.979H85.0818ZM89.4783 120.445C89.6008 119.243 89.6565 118.036 89.6452 116.828V115.576H97.4087V120.445H89.4783ZM97.4087 108.925V113.68H89.6452V108.925H97.4087ZM99.4087 106.977H87.6383V116.828C87.6383 121.141 87.1652 126.372 82.4905 129.958C83.0594 130.364 83.5738 130.841 84.0209 131.377C86.8307 129.128 88.6808 125.896 89.1965 122.334H97.4052V128.463C97.4052 128.964 97.2105 129.13 96.6818 129.158C96.2365 129.158 94.4835 129.186 92.6748 129.13C93.0353 129.754 93.2992 130.428 93.4574 131.13C95.0607 131.229 96.6698 131.107 98.24 130.769C99.1305 130.407 99.4087 129.767 99.4087 128.459V106.977ZM104.417 130.63C106.417 129.21 107.506 126.873 108.202 124.675L106.421 124.066C105.813 126.231 104.513 128.136 102.72 129.492L104.417 130.63ZM116.55 112.181H108.063V113.628H116.55V112.181ZM114.351 119.861H110.264V116.967H114.351V119.861ZM115.91 121.391C116.449 121.821 116.952 122.296 117.412 122.81C118.624 121.945 119.726 120.936 120.696 119.805C122.087 121.837 123.729 123.061 125.426 123.061C127.179 123.061 127.93 122.087 128.264 118.609C127.674 118.409 127.127 118.097 126.654 117.69C126.515 120.195 126.237 121.169 125.541 121.197C124.4 121.197 123.12 120.111 121.951 118.219C123.313 116.351 124.383 114.287 125.124 112.097L123.204 111.652C122.668 113.306 121.91 114.878 120.95 116.327C120.114 114.401 119.507 112.384 119.141 110.317H127.628V108.591H124.567L125.43 107.562C124.222 106.71 122.889 106.053 121.478 105.614L120.393 106.838C121.643 107.264 122.832 107.854 123.927 108.591H118.859C118.748 107.673 118.664 106.727 118.637 105.781H116.661C116.717 106.727 116.8 107.673 116.911 108.591H105.169V112.737C105.169 115.576 104.863 119.471 102.525 122.337C103.098 122.671 103.607 123.105 104.028 123.617C106.56 120.501 107.061 115.965 107.061 112.765V110.317H117.162C117.616 113.004 118.46 115.611 119.666 118.056C118.637 119.287 117.436 120.365 116.101 121.256V115.52H108.536V121.332H115.993L115.91 121.391ZM112.014 122.95C113.749 123.818 115.336 124.954 116.717 126.317L118.136 125.012C116.736 123.692 115.128 122.61 113.377 121.812L112.014 122.95ZM113.684 128.988C112.181 128.988 111.958 128.849 111.958 128.153V123.868H109.899V128.181C109.899 130.296 110.65 130.852 113.517 130.852H118.915C121.252 130.852 121.864 130.07 122.143 126.817C121.47 126.689 120.828 126.434 120.25 126.066C120.164 128.654 119.972 128.988 118.748 128.988H113.684ZM121.558 124.675C123.517 126.218 125.144 128.14 126.341 130.327L128.177 129.325C126.907 127.172 125.235 125.283 123.252 123.76L121.558 124.675ZM142.15 107.061L139.871 106.866C139.785 108.05 139.551 109.218 139.176 110.344C138.567 110.372 137.924 110.372 137.339 110.372C135.767 110.361 134.197 110.259 132.637 110.066V112.153C134.167 112.264 136.004 112.32 137.2 112.32H138.424C136.82 115.527 134.641 118.413 131.997 120.835L133.889 122.226C134.681 121.218 135.525 120.252 136.417 119.332C137.71 118.093 139.411 117.371 141.2 117.301C141.76 117.232 142.325 117.369 142.791 117.687C143.257 118.004 143.591 118.48 143.732 119.026C140.477 120.724 137.165 122.783 137.165 126.07C137.165 129.461 140.365 130.33 144.344 130.33C146.893 130.312 149.439 130.145 151.969 129.83L152.024 127.604C149.513 128.021 146.973 128.244 144.428 128.271C141.558 128.271 139.391 127.937 139.391 125.767C139.391 123.93 141.2 122.456 143.788 121.092C143.788 122.57 143.76 124.376 143.701 125.433H145.844C145.816 124.07 145.788 121.704 145.757 120.09C147.871 119.089 149.844 118.282 151.409 117.697C152.217 117.356 153.044 117.059 153.885 116.807L152.967 114.72C152.184 115.137 151.52 115.444 150.685 115.805C149.238 116.473 147.541 117.141 145.649 118.059C145.404 117.28 144.902 116.608 144.224 116.152C143.546 115.697 142.734 115.486 141.92 115.555C140.564 115.563 139.233 115.918 138.052 116.584C139.047 115.246 139.887 113.799 140.557 112.271C143.648 112.188 146.733 111.927 149.795 111.489L149.823 109.43C147.014 109.893 144.18 110.181 141.336 110.292C141.67 109.232 141.942 108.153 142.15 107.061Z"/>
</mask>
<path d="M62.3722 117.214H64.3479V113.405C66.3169 115.608 68.7498 117.347 71.4713 118.497C71.8034 117.923 72.2262 117.406 72.7235 116.967C70.005 116.083 67.535 114.567 65.5165 112.543H72.2505V110.897H64.3479V108.619C66.5995 108.433 68.8386 108.117 71.0539 107.673L69.7183 106.282C64.9982 107.077 60.2284 107.542 55.4435 107.673C55.6634 108.133 55.8224 108.619 55.9165 109.12C57.9478 109.064 60.1774 108.953 62.3722 108.786V110.897H54.6087V112.539H61.0887C59.023 114.657 56.5009 116.275 53.7148 117.27C54.209 117.692 54.6422 118.182 55.0018 118.724C57.8158 117.52 60.3325 115.715 62.3757 113.437L62.3722 117.214ZM66.9635 120.358C67.1305 119.524 67.2696 118.661 67.4087 117.854H56.807V119.496H60.1183C59.5896 122.445 58.3652 124.616 54.6087 125.812C55.0585 126.26 55.4342 126.777 55.7218 127.343C60.007 125.864 61.4539 123.197 62.0383 119.496H65.3218C65.0992 120.609 64.8487 121.75 64.5983 122.612L66.3792 122.835C66.4728 122.534 66.5472 122.227 66.6018 121.917H69.3287C69.0783 124.004 68.8278 124.922 68.4939 125.256C68.2713 125.45 68.0209 125.45 67.5479 125.45C67.1305 125.45 65.8226 125.45 64.487 125.339C64.7491 125.833 64.9188 126.37 64.9879 126.925C66.1086 127.003 67.233 127.012 68.3548 126.953C68.6584 126.977 68.9637 126.937 69.2512 126.837C69.5386 126.736 69.802 126.577 70.0244 126.369C70.6644 125.784 70.9983 124.393 71.3044 121.165C71.3424 120.898 71.361 120.628 71.36 120.358H66.9635ZM53.5792 111.012C52.3277 109.279 50.8167 107.749 49.0992 106.477L47.5131 107.645C49.2118 108.954 50.6953 110.521 51.9096 112.289L53.5792 111.012ZM52.7444 116.689H47.2661V118.637H50.8V125.76C49.5792 126.896 48.2973 127.964 46.96 128.96L48.0452 130.936C49.4087 129.739 50.6887 128.57 51.9131 127.37C53.6383 129.544 56.1426 130.515 59.7879 130.654C62.9044 130.793 68.7757 130.741 71.8922 130.598C72.0176 129.893 72.2425 129.209 72.56 128.567C69.2209 128.79 62.8209 128.873 59.76 128.734C56.5044 128.623 54.0557 127.677 52.7478 125.617L52.7444 116.689ZM83.1583 109.37V114.63H77.9583V109.37H83.1583ZM77.9583 122.059V116.522H83.1618V122.059H77.9583ZM85.0818 123.979V107.506H76.007V126.539H77.9548V123.979H85.0818ZM89.4783 120.445C89.6008 119.243 89.6565 118.036 89.6452 116.828V115.576H97.4087V120.445H89.4783ZM97.4087 108.925V113.68H89.6452V108.925H97.4087ZM99.4087 106.977H87.6383V116.828C87.6383 121.141 87.1652 126.372 82.4905 129.958C83.0594 130.364 83.5738 130.841 84.0209 131.377C86.8307 129.128 88.6808 125.896 89.1965 122.334H97.4052V128.463C97.4052 128.964 97.2105 129.13 96.6818 129.158C96.2365 129.158 94.4835 129.186 92.6748 129.13C93.0353 129.754 93.2992 130.428 93.4574 131.13C95.0607 131.229 96.6698 131.107 98.24 130.769C99.1305 130.407 99.4087 129.767 99.4087 128.459V106.977ZM104.417 130.63C106.417 129.21 107.506 126.873 108.202 124.675L106.421 124.066C105.813 126.231 104.513 128.136 102.72 129.492L104.417 130.63ZM116.55 112.181H108.063V113.628H116.55V112.181ZM114.351 119.861H110.264V116.967H114.351V119.861ZM115.91 121.391C116.449 121.821 116.952 122.296 117.412 122.81C118.624 121.945 119.726 120.936 120.696 119.805C122.087 121.837 123.729 123.061 125.426 123.061C127.179 123.061 127.93 122.087 128.264 118.609C127.674 118.409 127.127 118.097 126.654 117.69C126.515 120.195 126.237 121.169 125.541 121.197C124.4 121.197 123.12 120.111 121.951 118.219C123.313 116.351 124.383 114.287 125.124 112.097L123.204 111.652C122.668 113.306 121.91 114.878 120.95 116.327C120.114 114.401 119.507 112.384 119.141 110.317H127.628V108.591H124.567L125.43 107.562C124.222 106.71 122.889 106.053 121.478 105.614L120.393 106.838C121.643 107.264 122.832 107.854 123.927 108.591H118.859C118.748 107.673 118.664 106.727 118.637 105.781H116.661C116.717 106.727 116.8 107.673 116.911 108.591H105.169V112.737C105.169 115.576 104.863 119.471 102.525 122.337C103.098 122.671 103.607 123.105 104.028 123.617C106.56 120.501 107.061 115.965 107.061 112.765V110.317H117.162C117.616 113.004 118.46 115.611 119.666 118.056C118.637 119.287 117.436 120.365 116.101 121.256V115.52H108.536V121.332H115.993L115.91 121.391ZM112.014 122.95C113.749 123.818 115.336 124.954 116.717 126.317L118.136 125.012C116.736 123.692 115.128 122.61 113.377 121.812L112.014 122.95ZM113.684 128.988C112.181 128.988 111.958 128.849 111.958 128.153V123.868H109.899V128.181C109.899 130.296 110.65 130.852 113.517 130.852H118.915C121.252 130.852 121.864 130.07 122.143 126.817C121.47 126.689 120.828 126.434 120.25 126.066C120.164 128.654 119.972 128.988 118.748 128.988H113.684ZM121.558 124.675C123.517 126.218 125.144 128.14 126.341 130.327L128.177 129.325C126.907 127.172 125.235 125.283 123.252 123.76L121.558 124.675ZM142.15 107.061L139.871 106.866C139.785 108.05 139.551 109.218 139.176 110.344C138.567 110.372 137.924 110.372 137.339 110.372C135.767 110.361 134.197 110.259 132.637 110.066V112.153C134.167 112.264 136.004 112.32 137.2 112.32H138.424C136.82 115.527 134.641 118.413 131.997 120.835L133.889 122.226C134.681 121.218 135.525 120.252 136.417 119.332C137.71 118.093 139.411 117.371 141.2 117.301C141.76 117.232 142.325 117.369 142.791 117.687C143.257 118.004 143.591 118.48 143.732 119.026C140.477 120.724 137.165 122.783 137.165 126.07C137.165 129.461 140.365 130.33 144.344 130.33C146.893 130.312 149.439 130.145 151.969 129.83L152.024 127.604C149.513 128.021 146.973 128.244 144.428 128.271C141.558 128.271 139.391 127.937 139.391 125.767C139.391 123.93 141.2 122.456 143.788 121.092C143.788 122.57 143.76 124.376 143.701 125.433H145.844C145.816 124.07 145.788 121.704 145.757 120.09C147.871 119.089 149.844 118.282 151.409 117.697C152.217 117.356 153.044 117.059 153.885 116.807L152.967 114.72C152.184 115.137 151.52 115.444 150.685 115.805C149.238 116.473 147.541 117.141 145.649 118.059C145.404 117.28 144.902 116.608 144.224 116.152C143.546 115.697 142.734 115.486 141.92 115.555C140.564 115.563 139.233 115.918 138.052 116.584C139.047 115.246 139.887 113.799 140.557 112.271C143.648 112.188 146.733 111.927 149.795 111.489L149.823 109.43C147.014 109.893 144.18 110.181 141.336 110.292C141.67 109.232 141.942 108.153 142.15 107.061Z" fill="#454545" stroke="#454545" stroke-width="2" mask="url(#path-2-inside-1_5_14)"/>
<path d="M60.6122 86.4625H140.332V93.419H60.6122V86.4625Z" fill="#FFFA64"/>
<path d="M46.9565 136.028H153.892V142.984H46.9565V136.028Z" fill="#FFFA64"/>
<path d="M66.488 55.76V66.176H68.308V55.76H66.488ZM79.284 59.176V81.24H81.216V59.176H79.284ZM62.204 65.252V67.212H72.872V65.252H62.204ZM73.74 61.36V63.096H86.816V61.36H73.74ZM72.732 75.388V77.236H87.852V75.388H72.732ZM73.18 56.46V60.744H74.972V58.112H85.528V60.744H87.404V56.46H73.18ZM67.3 76.172L67.916 78.104C69.568 77.348 71.444 76.452 73.292 75.584L72.928 73.904C70.828 74.772 68.756 75.64 67.3 76.172ZM64.5 66.316C64.416 72.392 64.192 77.096 61.924 79.812C62.4 80.12 62.988 80.764 63.296 81.212C65.844 78.16 66.236 72.952 66.32 66.316H64.5ZM62.456 57.832C63.184 59.904 63.772 62.592 63.884 64.356L65.48 63.992C65.34 62.2 64.724 59.54 63.94 57.468L62.456 57.832ZM70.912 57.384C70.492 59.344 69.68 62.2 69.008 63.936L70.408 64.384C71.136 62.704 72.004 60.044 72.676 57.86L70.912 57.384ZM75.84 69.9H84.8V71.916H75.84V69.9ZM75.84 66.512H84.8V68.5H75.84V66.512ZM74.104 65.084V73.344H86.62V65.084H74.104ZM68.336 66.12V76.844L70.184 76.172V66.12H68.336ZM94.012 59.82L94.152 61.864C98.156 62.256 102.076 62.256 104.904 61.976C107.144 61.78 109.524 61.304 111.344 60.772L111.036 58.728C109.02 59.4 106.724 59.876 104.428 60.072C101.572 60.352 97.904 60.296 94.012 59.82ZM93.452 65.56L93.592 67.66C98.408 68.024 103.588 67.94 107.032 67.492C109.384 67.212 111.512 66.792 113.052 66.372L112.688 64.3C111.204 64.748 108.936 65.308 106.276 65.588C103 65.98 98.24 66.064 93.452 65.56ZM103.028 59.456C103.42 60.856 103.84 62.34 104.54 64.272C105.352 66.54 106.528 69.228 108.068 71.636C107.2 71.524 105.38 71.328 103.868 71.188L103.7 72.896C105.632 73.092 108.236 73.372 109.804 73.764L110.98 72.056C110.56 71.692 110.224 71.3 109.916 70.852C108.46 68.696 107.228 66.008 106.472 63.824C105.772 61.836 104.904 59.008 104.624 56.656L102.244 56.964C102.552 57.776 102.804 58.644 103.028 59.456ZM97.54 71.608L95.356 71.132C94.712 72.364 94.236 73.54 94.236 75.136C94.292 78.748 97.372 80.372 102.832 80.372C105.24 80.372 107.424 80.204 109.384 79.868L109.496 77.656C107.452 78.048 105.408 78.244 102.804 78.244C98.408 78.244 96.364 77.068 96.364 74.772C96.364 73.512 96.868 72.56 97.54 71.608ZM137.524 62.312L136.32 60.296C135.732 60.772 135.116 61.136 134.304 61.612C132.484 62.648 128.564 64.524 125.708 66.428C122.404 68.612 120.36 70.992 120.36 74.016C120.36 78.216 124.168 79.784 129.432 79.784C132.932 79.784 136.18 79.476 138.28 79.112L138.308 76.592C136.124 77.152 132.372 77.544 129.348 77.544C124.924 77.544 122.684 76.088 122.684 73.764C122.684 71.664 124.252 69.816 126.856 68.108C129.6 66.316 133.492 64.468 135.368 63.488C136.208 63.068 136.908 62.676 137.524 62.312ZM123.356 57.216L121.144 58.168C122.656 61.64 124.336 65.42 125.764 67.716L127.668 66.568C126.38 64.3 124.644 60.8 123.356 57.216Z" fill="#454545"/>
</g>
</g>
<defs>
<clipPath id="clip0_5_14">
<rect width="200" height="200" fill="white"/>
</clipPath>
<clipPath id="clip1_5_14">
<rect width="200" height="200" fill="white"/>
</clipPath>
</defs>
</svg>
